:SAMPLES-PER-SECOND 30
:FULLY-SPECIFIED
:DEGREES
212
root  34.83972925 36.49505555 -14.98490732 8.782269478 -6.766492367 4.37795496
lowerback  -6.956840038 -1.680230021 -1.446910262
upperback  -4.137360096 -1.658480048 -4.11743021
thorax  -0.4513970017 -0.6454960108 -3.546030045
lowerneck  1.317039967 -19.2220993 -13.42739964
upperneck  8.121479988 -27.03540039 15.96350002
head  6.261040211 -13.02250004 4.749120235
lclavicle  0 -4.497500157e-015 -2.743230041e-014
lhumerus  -49.57640076 29.66629982 61.20399857
lradius  -2.057401616e-006 -6.507048965e-006 30.20999908
lwrist  4.824992743e-007 -3.790274832e-007 -28.98559952
lhand  -4.443108176e-031 -37.36909866 -10.60400009
lfingers  90 7.125020027 -90
lthumb  95.02018902 -25.42417991 101.56385
rclavicle  0 -4.497500157e-015 -2.743230041e-014
rhumerus  -27.46010017 -40.69929504 8.091387749
rradius  -5.16745672e-007 2.214343908e-008 50.68349838
rwrist  -0.0001011603963 -0.001600692281 -170.0769958
rhand  -1.770856439e-031 4.431419849 -7.874579906
rfingers  -90 -7.125020027 -90
rthumb  -85.23837099 -8.238225419 -59.82938974
rfemur  -13.87379551 16.44907951 11.99700737
rtibia  -1.867296934 -1.829363108 22.31140327
rfoot  -0.2106080651 -22.95243263 -35.08966446
rtoes  3.858956542 19.639156 -101.3483602
lfemur  -9.20906353 -17.34997177 -21.08940125
ltibia  2.370239496 -2.042878389 15.74987984
lfoot  1.38158083 -22.12275696 38.83190536
ltoes  -8.700289066 -18.07865246 -116.2489103
213
root  34.83854279 36.49521775 -14.98536388 8.757905006 -6.723022938 4.375914574
lowerback  -6.944849968 -1.698740005 -1.473109484
upperback  -4.138249874 -1.683809996 -4.090680122
thorax  -0.4585109949 -0.6580489874 -3.504669905
lowerneck  1.210829973 -19.13979912 -13.39700031
upperneck  8.194680214 -26.91259956 15.87940025
head  6.266630173 -12.95919991 4.729459763
lclavicle  0 -4.497500157e-015 -2.743230041e-014
lhumerus  -49.60079956 29.70249939 61.25519943
lradius  -2.057401616e-006 -6.507048965e-006 30.23079872
lwrist  4.824992743e-007 -3.790274832e-007 -28.91259956
lhand  -4.444388229e-031 -37.39070129 -10.55819988
lfingers  90 7.125020027 -90
lthumb  95.02010057 -25.37856799 101.5825289
rclavicle  0 -4.497500157e-015 -2.743230041e-014
rhumerus  -28.24770164 -40.64720535 8.130030632
rradius  -5.16745672e-007 2.214343908e-008 51.77600098
rwrist  -0.0001011603963 -0.001600692281 -170.6009979
rhand  -1.770892478e-031 4.44644022 -7.972280025
rfingers  -90 -7.125020027 -90
rthumb  -85.28466239 -8.154743993 -59.82188259
rfemur  -13.8422699 16.45203018 12.01365376
rtibia  -1.865787745 -1.817262173 22.31261444
rfoot  -0.2220216393 -22.93953323 -35.13825989
rtoes  3.867786116 19.63748502 -101.3746323
lfemur  -9.134408951 -17.38433456 -21.1076107
ltibia  2.402201414 -2.018782139 15.67759132
lfoot  1.378610134 -22.13599396 38.85592651
ltoes  -8.665162904 -18.09507707 -116.1357675
214
root  34.83659038 36.49284783 -14.98555461 8.727830887 -6.66424036 4.377817154
lowerback  -6.93614006 -1.712190032 -1.481699347
upperback  -4.151410103 -1.702049971 -4.07201004
thorax  -0.4769510031 -0.6668199897 -3.481169939
lowerneck  0.9514619708 -19.06550026 -13.38399982
upperneck  8.518959999 -26.80659866 15.69849968
head  6.366980076 -12.88990021 4.657430172
lclavicle  0 -4.497500157e-015 -2.743230041e-014
lhumerus  -49.64649963 29.71339989 61.29859924
lradius  -2.057401616e-006 -6.507048965e-006 30.26589775
lwrist  4.824992743e-007 -3.790274832e-007 -28.84499931
lhand  -4.445859391e-031 -37.41550064 -10.57359982
lfingers  90 7.125020027 -90
lthumb  95.0351394 -25.39272739 101.6105755
rclavicle  0 -4.497500157e-015 -2.743230041e-014
rhumerus  -29.11590004 -40.43650055 8.215279579
rradius  -5.16745672e-007 2.214343908e-008 52.88579941
rwrist  -0.0001011603963 -0.001600692281 -171.1690063
rhand  -1.770893439e-031 4.446839809 -8.036390305
rfingers  -90 -7.125020027 -90
rthumb  -85.31710172 -8.099384991 -59.82607519
rfemur  -13.79858971 16.46132469 12.03576756
rtibia  -1.863162041 -1.787694812 22.31469536
rfoot  -0.2275526077 -22.8871212 -35.19264984
rtoes  3.866077314 19.63780872 -101.3695477
lfemur  -9.059736252 -17.37980843 -21.12694931
ltibia  2.436564445 -1.999016166 15.60869122
lfoot  1.363356352 -22.13934135 38.81628036
ltoes  -8.663741479 -18.09573995 -116.1311911
215
root  34.83437365 36.49393517 -14.98541043 8.684225082 -6.599347115 4.365870476
lowerback  -6.944610119 -1.731789947 -1.51549983
upperback  -4.161660194 -1.724979997 -4.059919834
thorax  -0.4824889898 -0.6769919991 -3.451139927
lowerneck  0.7411739826 -18.97400093 -13.33829975
upperneck  8.752710342 -26.6739006 15.56260014
head  6.429639816 -12.81089973 4.607439995
lclavicle  0 -4.497500157e-015 -2.743230041e-014
lhumerus  -49.69409943 29.72559929 61.32360077
lradius  -2.057401616e-006 -6.507048965e-006 30.31310081
lwrist  4.824992743e-007 -3.790274832e-007 -28.81979942
lhand  -4.442326759e-031 -37.35589981 -10.59930038
lfingers  90 7.125020027 -90
lthumb  95.01295254 -25.42010614 101.5492271
rclavicle  0 -4.497500157e-015 -2.743230041e-014
rhumerus  -30.14060211 -40.13310242 8.338442802
rradius  -5.16745672e-007 2.214343908e-008 54.07649994
rwrist  -0.0001011603963 -0.001600692281 -172.0140076
rhand  -1.770790849e-031 4.403950214 -7.954810143
rfingers  -90 -7.125020027 -90
rthumb  -85.28527366 -8.166892932 -59.8619242
rfemur  -13.719347 16.46598434 12.0693121
rtibia  -1.857186198 -1.751079798 22.27978706
rfoot  -0.2165971398 -22.82290649 -35.2484436
rtoes  3.880672848 19.63503907 -101.4129803
lfemur  -8.98187542 -17.45257568 -21.14377785
ltibia  2.450775385 -2.013000488 15.57913399
lfoot  1.345344543 -22.09802628 38.80610657
ltoes  -8.64364215 -18.10509876 -116.0664972
216
root  34.83324727 36.49515167 -14.98493885 8.64150238 -6.558840275 4.352110863
lowerback  -6.936729908 -1.74150002 -1.550759673
upperback  -4.174230099 -1.735489964 -4.050990105
thorax  -0.4988960028 -0.6810079813 -3.422319889
lowerneck  0.6051309705 -18.8696003 -13.31410027
upperneck  8.862130165 -26.52499962 15.51399994
head  6.454599857 -12.72980022 4.598480225
lclavicle  0 -4.497500157e-015 -2.743230041e-014
lhumerus  -49.73300171 29.77409935 61.32109833
lradius  -2.057401616e-006 -6.507048965e-006 30.32889938
lwrist  4.824992743e-007 -3.790274832e-007 -28.91160011
lhand  -0 -37.37829971 -10.54819965
lfingers  90 7.125020027 -90
lthumb  95.01210199 -25.36912587 101.5683905
rclavicle  0 -4.497500157e-015 -2.743230041e-014
rhumerus  -31.26950073 -39.13650513 8.349182129
rradius  -5.16745672e-007 2.214343908e-008 55.50859833
rwrist  -0.0001011603963 -0.001600692281 -173.1679993
rhand  -3.541502064e-031 4.387189865 -7.778920174
rfingers  -90 -7.125020027 -90
rthumb  -85.19982062 -8.3178365 -59.8654545
rfemur  -13.63479614 16.44617653 12.10328293
rtibia  -1.846296787 -1.73880899 22.23122787
rfoot  -0.1906739622 -22.81167793 -35.24777222
rtoes  3.85845808 19.63925021 -101.3468771
lfemur  -8.953294754 -17.48248482 -21.13398933
ltibia  2.434231281 -2.024408102 15.60798645
lfoot  1.319350123 -22.08987999 38.74867249
ltoes  -8.678177776 -18.08900119 -116.1776774
217
root  34.83234616 36.49711309 -14.98395664 8.606595039 -6.521091461 4.348274708
lowerback  -6.910990715 -1.750430107 -1.570559978
upperback  -4.193980217 -1.747370005 -4.036660194
thorax  -0.5329880118 -0.6861659884 -3.396110058
lowerneck  0.5241389871 -18.74710083 -13.30230045
upperneck  8.914910316 -26.35219765 15.50109959
head  6.456160069 -12.64089966 4.612229824
lclavicle  0 -4.497500157e-015 -2.743230041e-014
lhumerus  -49.77000046 29.73740005 61.38779831
lradius  -2.057401616e-006 -6.507048965e-006 30.37149811
lwrist  4.824992743e-007 -3.790274832e-007 -28.82769775
lhand  -4.444589754e-031 -37.39410019 -10.5710001
lfingers  90 7.125020027 -90
lthumb  95.02452803 -25.3909176 101.5873966
rclavicle  0 -4.497500157e-015 -2.743230041e-014
rhumerus  -32.29399872 -38.86389923 8.469167709
rradius  -5.16745672e-007 2.214343908e-008 56.72299957
rwrist  -0.0001011603963 -0.001600692281 -174.5379944
rhand  -1.770604326e-031 4.32487011 -7.792300224
rfingers  -90 -7.125020027 -90
rthumb  -85.22064726 -8.302040066 -59.92713397
rfemur  -13.57029819 16.42970467 12.12452602
rtibia  -1.845396638 -1.736375093 22.19544983
rfoot  -0.1800856292 -22.80493736 -35.27164078
rtoes  3.853473296 19.64019169 -101.3320461
lfemur  -8.908900261 -17.44593811 -21.13569069
ltibia  2.439868927 -1.989044905 15.59424686
lfoot  1.328983665 -22.17055893 38.73348618
ltoes  -8.700095809 -18.07874306 -116.2482876
218
root  34.83173941 36.49681572 -14.98134643 8.569620132 -6.483829498 4.332479477
lowerback  -6.886520386 -1.759850144 -1.596870184
upperback  -4.198120117 -1.759709954 -4.028850079
thorax  -0.5502589941 -0.691798985 -3.37322998
lowerneck  0.2526830137 -18.63129997 -13.23120022
upperneck  9.155139923 -26.18440056 15.39229965
head  6.527319908 -12.53919983 4.566830158
lclavicle  0 -4.497500157e-015 -2.743230041e-014
lhumerus  -49.76229858 29.7098999 61.47320175
lradius  -2.057401616e-006 -6.507048965e-006 30.41670036
lwrist  4.824992743e-007 -3.790274832e-007 -28.73270035
lhand  -4.44169951e-031 -37.34529877 -10.59710026
lfingers  90 7.125020027 -90
lthumb  95.00757275 -25.41834394 101.5378301
rclavicle  0 -4.497500157e-015 -2.743230041e-014
rhumerus  -33.29539871 -38.75970078 8.518438339
rradius  -5.16745672e-007 2.214343908e-008 57.84740067
rwrist  -0.0001011603963 -0.001600692281 -175.4210052
rhand  -3.541221088e-031 4.327529907 -7.573029995
rfingers  -90 -7.125020027 -90
rthumb  -85.10889628 -8.49201778 -59.90825205
rfemur  -13.49287415 16.3823204 12.15423107
rtibia  -1.828992963 -1.713576436 22.1495018
rfoot  -0.1540824473 -22.77598 -35.25801849
rtoes  3.839229426 19.64287493 -101.2896705
lfemur  -8.840754509 -17.4218502 -21.13942909
ltibia  2.451889753 -1.978512287 15.56436253
lfoot  1.317593336 -22.17790222 38.69654465
ltoes  -8.730993875 -18.0642268 -116.3478934
